<svg xmlns="http://www.w3.org/2000/svg" width="180" height="250" viewBox="-90 -125 180 250">
  <rect x="-90" y="-125" width="180" height="250" ry="20" fill="#2c292c" />
  <path fill="#ff6080" d="m-19-85c1 2 0 5 3 6c3 0 8 5 7 11c0 72 2 77 0 132c-2 20 3 31 5 33c1 3 2 2 3 1c5-14 8 -5 6 -39c-1-58 -1 -121 7 -126c4-3 8 -11 7 -13c1-2 -20 -21 -22 -19c-3 3-14 8 -15 14z" />
  <path fill="#ff6080" d="m42-59c-31 9-44 11 -84 22c-3 0-8 -1 -11 -5c-3-3 -5 0 -5 4c1 4 1 8 3 10c11 10 15 21 16 33c0 3-3 5 2 5s42-4 71 -1c2 1 3-2 3 -3c-2-8 12 -31 17 -40c1-2 6 -3 7 -3c0 0 2-1 1 -2c-6-7 -17 -20 -18 -20zm-11 18c5 0 7 2 5 5c-6 11-12 33 -14 33c-31 0-44 2 -47 1c-1-1 -3 -13 -10 -21c-2-2 -1 -3 1 -3c10-2 50 -14 65 -14z" />
</svg>
