<svg xmlns="http://www.w3.org/2000/svg" width="180" height="250" viewBox="-90 -125 180 250">
  <rect x="-90" y="-125" width="180" height="250" ry="20" fill="#2c292c" />
  <path fill="#87bd52" d="m-3-64c-11 10-17 21 -31 28c-6 4-6 8 2 7c13-2 26 -9 37 -15c9-6 8 -32 -8 -20zm26-4c-3 10-6 17 -11 27l7 6c9-19 13 -27 17 -29c2-1 1 -4 -1 -5c-2-3 -3 -7 -5 -9c-5-5 -6 5 -7 9zm19 28c-2-3 -5 -2 -6 2s-9 14-19 23c-3 3 0 6 5 3c8-8 15 -14 20 -15c3-1 7 1 6 -2c-1-4 -4 -7 -7 -10zm-84 14c-7-7 -13 -5 -5 6c15 20 24 24 20 32h7c4-4 2 -2 -1 -14c-1-4 -11 -9 -22 -23zm49-3c-1-2 -4 -4 -6 1c-1 3 1 5 1 8c-2 21-6 27 -8 36c-1 5 1 8 5 1l14-34c1-4 -2 -8 -6 -12zm-27 44l-6 3c4 9-5 37 -11 37c-8-1 -15 -6 -20 -10h-3c6 10 14 22 23 23c3 1 8-3 10 -5c11-22 14 -33 12 -39c-1-3 -5 -5 -6 -8zm32-3l-8 2c0 15 1 18-1 22c-5 9-1 11 -23 27c-4 3-1 7 3 6c15-3 29 -12 29 -15c3-10 1 -25 -1 -41z" />
  <path fill="#87bd52" d="m1-45c13 5 26 38 36 65l2 3c9 6 20 13 25 17c9 6 13 2 11-4l-10-18c-2-4 -7 -8 -14 -12c-13-10 -21 -30 -44 -58c-1-1 -7 5 -6 8zm-27 40l-9 10c4-1 10 0 22 -7c9-5 4 -10 -2 -8c-11 5-10 4 -11 5zm-20 30c-3 2-7 -1 -5 3c2 4 6 3 10 2c3-1 26 -18 40 -21l1-10c-24 8-43 24 -46 26zm27 6l-1 9c-2-1 36 -3 59 -2c3 0 8 0 7-3c-5-8 -8 -9 -11 -9l-5 1l-49 3zm40 20c6 4 9 8 10 17c0 1-1 3 3 3c10 2 21-3 22 -8c1-10 -19 -18 -32 -17c-3 1-3 4 -2 5zm-44-18l-1-7c-13 5-24 12 -34 14c-4 1-7 -1 -10 -3c-2-2 -3 0 -3 2c1 4 2 4 5 6c3 2 5 2 9 2c10-1 23 -10 34 -14zm21-24l-3 10c12-2 18 -2 28 -6c8-6 4 -8 -1 -8c-14 2-10 3 -24 5zm4-59c-25 41-43 64 -70 81c-8 5-9 1 -4 -4c34-27 41 -50 69 -80z" />
</svg>
