<svg xmlns="http://www.w3.org/2000/svg" width="180" height="250" viewBox="-90 -125 180 250">
  <rect x="-90" y="-125" width="180" height="250" ry="20" fill="#2c292c" />
  <circle cx="-60" cy="-75" r="10" fill="#ff6090" />
  <path fill="#ff6090" d="m-19-101c-4 3-6 4 -8 10c-1 1-1 4 1 7c11 10-28 34 -42 43c-9 6-6 13 6 7c15-7 43 -16 47 -37c1-2 2 -3 4 -4c4-1 1 -17 -2 -20c-2-4 -5 -6 -7 -5zm34 8l-17 4c5 7-7 32 -13 48l15-2c2-17 11 -34 15 -50zm14 5c-1 0-5 4 -5 6c0 14 0 29-1 43c-1 7 13 2 13-2c2-15 1 -44 0 -45l-7-2zm-56 34c0 2 0 1-1 4c-2 6-5 8 -6 14c-1 3 10 13 13 11c4-3 6 -8 6 -11c-1-11 -7 -19 -7 -23z" />
  <path fill="#ff6090" d="m-22-75c8 20 37-8 55 -7v11c-18-4 -49 21 -57 4zm0 34c58-19 88 -5 90 -1c1 2 1 6-1 8c-10 15-64 -23 -88 7zm8-56c25 9 35-10 58 -14c7-1 13 1 18 2c10 2 2 19-6 15c-20-10 -36 5 -55 10c-1 0-2 -2 -3 -3c-3-4 -7 -1 -10 -2z" />
  <path fill="#ff6090" d="m-50 20c61 7 58-10 109 -11c11-1 10 -10 -1 -10c-54 2-35 21 -107 10c-17-3 -14 9 -1 11zm55-26c1-2 -5 -7 -8 -2l-6 11c-1 1-2 4 -1 5c5 4 4 3 7 9l12-1c-4-5 -4 -5 -6 -10c-1-5 0 -6 2 -11zm16-23c-2-1 -2 -2 -4 0l-9 9v3l5 5c2 2 3 4 2 7c-2 6-4 12 -4 15l13-2c-2-6 -2 -8 2 -13c3-4 7 -5 4 -10zm13 48l-5 1c-16 2-27 8 -53 7c-4 0-7 2 -6 4c0 6 4 38 5 40c1 4 6 4 7 1v-5l1-1l34-4l1 1l-1 28c0 1 0 2 1 3c2 2 14 1 17-1c1-1 1 -1 1 -2c-2-20 0 -46 1 -67c1-4 -2 -5 -5 -5zm-16 10c4-1 1 10 0 10l-35 2c-3-1 -3 -8 -1 -8c16-1 22 -2 36 -4zm0 17c1 0 1 7-1 8l-34 2c-2-1 -2 -7 -1 -7zm-12-17h-11l-4 55c0 6 3 13 7 13l11-4zm-37 65l1 5c32 11 25-5 58 -9v-3c-25-2 -39 8 -58 7zm-3-35c-3-8 -11 -7 -10 1c8 26 11 40 12 43c7 11 11 8 11-2c0-3 -8 -26 -14 -41zm-26 17c-5-1 -5 5 -2 7c35 16 74-5 106 -3l5 2c5 3 2 11-1 13c-13 6-10 0 -25 7c-1 1-5 1 -6 1c-5-2 -10 -5 -13 -7l-7 3c4 5 10 8 16 10c4 2 8 1 11 2c15 0 29-6 36 -7c2-1 5 -4 5 -5c6-10 4 -11 -1 -22c-2-4 -9 -5 -13 -5c-36-2 -83 11 -113 4z" />
</svg>
