<svg xmlns="http://www.w3.org/2000/svg" width="180" height="250" viewBox="-90 -125 180 250">
  <rect x="-90" y="-125" width="180" height="250" ry="20" fill="#2c292c" />
  <path fill="#908e8e" d="m-17-76c-4-1 -7 -3 -8 -6c-1-1 -1 -5 1 -5c10-1 4 -4 7 -5c13-2 31 -10 43 -13c7-2 11 -7 13 -7c8 0 8 16 4 17c-19 3-29 2 -48 7z" />
  <path fill="#908e8e" d="m-2-101c1-5 -22 -11 -20 -2c11 37-4 47 -40 61c-2 1-3 5 1 4c39-12 62 -15 59 -62zm11 1c1-6 -5 -4 -7 2c2 17-11 44 4 61c7 8 44 8 50 2c10-8 5 -17 -1 -17c-11 1-11 -30 -17 -29c-5 1 1 29-4 32c-7 5-19 -2 -22 -7c-9-13 -2 -34 -4 -46z" />
  <path fill="#f08060" d="m-50 20c61 7 58-10 109 -11c11-1 10 -10 -1 -10c-54 2-35 21 -107 10c-17-3 -14 9 -1 11zm55-26c1-2 -5 -7 -8 -2l-6 11c-1 1-2 4 -1 5c5 4 4 3 7 9l12-1c-4-5 -4 -5 -6 -10c-1-5 0 -6 2 -11zm16-23c-2-1 -2 -2 -4 0l-9 9v3l5 5c2 2 3 4 2 7c-2 6-4 12 -4 15l13-2c-2-6 -2 -8 2 -13c3-4 7 -5 4 -10zm13 48l-5 1c-16 2-27 8 -53 7c-4 0-7 2 -6 4c0 6 4 38 5 40c1 4 6 4 7 1v-5l1-1l34-4l1 1l-1 28c0 1 0 2 1 3c2 2 14 1 17-1c1-1 1 -1 1 -2c-2-20 0 -46 1 -67c1-4 -2 -5 -5 -5zm-16 10c4-1 1 10 0 10l-35 2c-3-1 -3 -8 -1 -8c16-1 22 -2 36 -4zm0 17c1 0 1 7-1 8l-34 2c-2-1 -2 -7 -1 -7zm-12-17h-11l-4 55c0 6 3 13 7 13l11-4zm-37 65l1 5c32 11 25-5 58 -9v-3c-25-2 -39 8 -58 7zm-3-35c-3-8 -11 -7 -10 1c8 26 11 40 12 43c7 11 11 8 11-2c0-3 -8 -26 -14 -41zm-26 17c-5-1 -5 5 -2 7c35 16 74-5 106 -3l5 2c5 3 2 11-1 13c-13 6-10 0 -25 7c-1 1-5 1 -6 1c-5-2 -10 -5 -13 -7l-7 3c4 5 10 8 16 10c4 2 8 1 11 2c15 0 29-6 36 -7c2-1 5 -4 5 -5c6-10 4 -11 -1 -22c-2-4 -9 -5 -13 -5c-36-2 -83 11 -113 4z" />
</svg>
