<svg xmlns="http://www.w3.org/2000/svg" width="180" height="250" viewBox="-90 -125 180 250">
  <rect x="-90" y="-125" width="180" height="250" ry="20" fill="#2c292c" />
  <path fill="#3bb6e3" d="m10-89c-3 0-15 13 -18 17c-3 4 2 6 4 9c3 4 1 45-3 62l8-2c4-12 8 -47 12 -50c3-3 11 -2 10 -6c-2-10 -10 -30 -13 -30zm-59 103c19-11 63 -21 98 -22c4 0 15 27 15 32c-1 13-22 44 -36 63c-3 3-9 2 -14 0l-23-16c-3-2 -2 -6 2 -4c5 3 17 7 22 8c6 1 24-43 25 -50c1-4 -4 -20 -11 -21c-53 2-71 18 -78 19zm30 25c-8 3-6 -9 -1 -10c37-12 38 -11 44 -9s8 11 1 11c-16-1 -28 1 -44 8zm2 8c-5 1-4 9 1 8c13-3 23 -4 36 -6c4-1 4 -12 1 -13c-5-2 -6 1 -8 3c-6 3-19 5 -30 8z" />
  <path fill="#3bb6e3" d="m-6 30c1 13 3 28 1 41l9 5c2-15 3 -32 2 -47zm-55-35c-4 2-3 7 -2 10c5 22 23 63 26 66c11 7 15 2 15-3c-1-5 -15 -43 -24 -63c-3-7 -11 -11 -16 -10zm17-10c-7-4 -5 -9 5 -6c21 8 29 21 35 47l-8 2c-7-25 -14 -34 -32 -44zm26-20c-10 1-14 5 -1 7c16 1 49-3 49 -8c0-7 -5 -16 -8 -15c-3 0-8 3 -8 7c-1 5-25 9 -34 9zm15 26c13-6 23 -11 35 -17c4-3 8 3 7 5c-1 2-7 14 -2 14c-5 4-19 16 -26 34l-12-1c5-14 25 -36 24 -37c-3-3 -21 7 -25 6z" />
</svg>
