<svg xmlns="http://www.w3.org/2000/svg" width="180" height="250" viewBox="-90 -125 180 250">
  <rect x="-90" y="-125" width="180" height="250" ry="20" fill="#2c292c" />
  <path fill="#3bb6e3" d="m-59-20c-3 4 10 14 20 17c3 1 13-9 9 -11c-11-6 -27 -9 -29 -6zm40-28c-5-1 -8 5 -7 9c0 4 1 9 5 13c3 4 1 29 1 50l-1 3c0 4 2 13 5 13c2 0 5-4 6 -9c1-23 4 -54 5 -58c3-5 7 -4 7 -9c1-7 -9 -11 -20 -12zm34-23c-6 0-16 14 -16 17c0 4 10 8 10 13c0 33-9 85 -2 94c10 12 56 1 59-2c5-4 7 -8 5 -12c-2-4 -36 6 -51 0c-7-3 -2 -47 -2 -74c1-6 12 -13 13 -16c0-5 -9 -21 -15 -22z" />
  <path fill="#3bb6e3" d="m-41-18c-12 44-9 40 -29 67c-3 8 8 15 13 12c8-5 16 -11 21 -17c10-12 52 -44 81 -52c6-2 11 -2 16 -3c4-1 0 -7 -2 -9c-8-8 -21 -13 -25 -10c-2 1 1 14-2 15c-22 11-62 39 -81 53l1-4c4-8 9 -31 11 -54c1-5 -4 -3 -5 2z" />
</svg>
