<svg xmlns="http://www.w3.org/2000/svg" width="180" height="250" viewBox="-90 -125 180 250">
  <rect x="-90" y="-125" width="180" height="250" ry="20" fill="#2c292c" />
  <path fill="#3bb6e3" d="m-58-44c-4 1-9 -5 -3 -7c19-4 82 -15 89 -18c7-2 21 9 30 14c6 4 3 8-1 10c-4 1-24 3 -35 2c-2-1 -1 -6 -6 -7c-22-4 -52 3 -74 6zm79-1c-1 2-1 5 -2 5c-2 1-5 0 -6 2c-2 4-13 13 -21 19c-2 2-4 1 -5 -3l1 13h4c4-4 18 -18 24 -18c4 0 9-2 11 -5c1-3 -2 -5 -2 -7c0-2 4 -4 5 -4c3 0-8 1 -9 -1zm-77 49c6 13 19 36 24 59l14-1c-4-17 -12 -46 -20 -60c-14-26 -30 -22 -18 2zm42-35c-1-8 -7 -6 -6 1l8 91h6zm29 4l-5 3l-11 84h6z" />
  <path fill="#3bb6e3" d="m-47-2c23-6 75 -24 83 -21c10 5 27 17 27 22s0 6-4 10c-6 6-24 36 -27 48c-1 3 0 9-2 11c-3 4-38 -1 -60 -2c-8-1 -11 -9 1 -9c15-1 39 -1 42 -5c3-4 21 -46 21 -50c0-3 -5 -10 -8 -12c-3-3 -50 13 -71 17z" />
</svg>
