<svg xmlns="http://www.w3.org/2000/svg" xmlns:xlink="http://www.w3.org/1999/xlink" viewBox="-90 -125 180 250">
  <rect x="-90" y="-125" width="180" height="250" ry="20" fill="#2c292c" />
  <path id="a" fill="#f08060" d="m-15 59l-2 15c-5 0-8 -2 -11 -3c2 4 5 6 10 8l-2 11l-13-2l10 5l-15 3h17c-3 2-6 3 -8 6c7-1 12 -4 15 -6c3 0 5-1 10 -2c-2-1 -6 -2 -9 -3l1-11c7-1 11 -4 14 -5c-5 1-8 0 -13 0l2-15z"/>
  <use x="20" y="3" transform="rotate(-12)" xlink:href="#a" />
  <path fill="#eee" d="m-63.5 47c-5 1-9 5 -12 7c3-1 7 -2 10 -3c2 0 2 0 1 1l4-10c-1 1-2 4 -4 5zm27-25c-7-4 -9 -6 -11 -8c-4-5 -9 -8 -14 -11c4 4 8 7 12 14l-12-2c9 3 16 7 21 12zm83 15c11-5 20 -11 33 -14c-15 6-23 11 -30 19c-1 2 0 3 1 5l-7-13c2 2 3 4 4 4zm-10-16c3 5 20-10 28 -15l-16 13l16-9c-9 7-20 12 -24 20z" />
  <path fill="#87bd52" d="m-28-62c-2 0-2 0 -3 -1l-2-2l-4-5l-1-1c-1 2-2 4 -2 6c0 2 1 4 2 5l1 0l2-1l3-1l2 0l3-1zm-10 3l-1-1l-11-1l3 7l2 4l1-1l5-7zm-6 8l-2 0c-2 0-4 0 -6 1c-1 1-2 2 -3 3l3 2c3 1 6 1 9 1c-1-1 -1 -2 -1 -3l0-1l1-1l0-1zm1 6l-6 9c4 0 7 1 11 3c-2-4 -4 -8 -5 -12zm5 12l-2 2c-2 1-5 1 -7 1l4 8l7-8l-1-2zm-5 10l-4 0c-3-1 -5 -1 -8 -1l2 4c2 2 3 4 5 6l1-2c1-1 2 -3 3 -4l1-2zm-5 8l-3 1c-3 1-6 3 -7 5l1 1c4 1 7 1 10-1l-2-2l0-2l0-1zm2 6l-1 1c-1 3-1 7 -1 11a36 36 90 009-8l-3-1l-5-3l0 0zm8 4c1 4 2 8 3 12a82 82 90 007-9a214 214 90 01-10-3zm10 3l5 11l7-10l-11-1zm11 1a163 163 90 005 11l6-10a145 145 90 01-11-1zm11 1l6 11a240 240 90 005-11a256 256 90 01-11 0zm11 0l6 10l5-11l-11 1zm11-1l3 4l4 6l5-11a546 546 90 00-11 1zm11-1l7 10a1013 1013 90 015-11a100 100 90 01-11 0zm11 0c2 3 4 7 7 10c1-4 3 -8 3 -12c-3 1-6 2 -10 2zm10-2l1 1c3 3 6 5 9 7c0-3 0 -5 0 -7l-2-4l-1 1a32 32 90 01-7 3zm8-4a14 14 90 0012 0a15 15 90 00-10-6l0 1l-1 3l-1 2zm2-6c2-2 5 -4 6 -6l2-3a31 31 90 00-12 2l1 1l3 4l1 3zm-4-8a32 32 90 003-11c-3 2-7 3 -10 2l-1-1l0 1l5 6l3 3zm-7-10c3-3 6 -4 11 -4l-2-2c-2-2 -4 -4 -6 -6l-1 3l-2 9zm3-12l4-1c2-1 5 -2 6 -4l-3-1c-3-1 -6 -1 -9 0l1 2v3l0 2zm-1-7c2-3 3 -7 3 -11l-5 2c-2 1-4 2 -6 3l3 3c2 1 4 2 5 4zm-7-7c0-3 0 -5 1 -6l3-2c-2-1 -4 -2 -7 -4c0 3-1 6 -1 8l5 4zm-4-12c2-1 5 -3 7 -3c2-1 3 -1 4 -2a17 17 90 00-11-4h0c1 1 1 3 0 5l0 4zm0-9c2-1 3 -3 4 -4s1-4 1 -6v-1c-4 2-7 4 -9 8c2 0 3 1 3 1l1 1l1 1zm-5-3v-1c-1-4 -3 -7 -5 -10a36 36 90 00-4 11l4-1h5v0zm-9 1a43 43 90 00-9-8l-1 9l-1 3l2 0l6-3l2-1zm-10 3c-4-2 -5 -4 -6 -4l0-1l-6 3l5 4l7-2zm-12-2c-1-4 -1 -8 -1 -12l0 0c-3 1-5 3 -7 6l-1 3h1c1 0 1 1 2 1c2 1 4 2 6 3zm-8-4c0-1 -1 -3 -2 -4c-2-2 -4 -3 -7 -4c0 3 1 6 2 9l1 3l1-1c2-2 3 -3 4 -3l1 0zm-6 4c-4-1 -8 -1 -12 -1l2 3l4 7l2-4c1-2 2 -4 4 -6zm-6 9l-5 0c-3 0-5 -1 -7 -2c1 2 1 3 1 5c0 2 0 4 0 6l2-1c1 0 2-1 3 -2l3-4l2-2z" />
  <path fill="#87bd52" d="m-20 9c-6 0-13 -1 -17 -2c-6-1 -10 -3 -13 -6c-2-2 -3 -4 -3 -7c0-5 3 -12 8 -18l2-3l2-4l1-2l-3-4a48 48 90 01-8-11c-1-1 -1 -2 -1 -4c0-2 2 -5 6 -8c2-2 2 -2 8 -3l5 0c2-1 4 -3 6 -4l3-6c3-6 6 -11 9 -14c3-4 6 -4 9 -3c3 1 6 3 9 7l2 2l2-1l4-2l5-2c9-3 18 -3 21 1c1 1 2 3 2 4c0 2 0 9-1 12c-1 5-1 4 1 5a73 73 90 017 7c2 1 3 3 4 5c1 3 1 5 0 8l-1 5l-1 5l-1 3l1 2l2 3l3 3c5 4 8 10 7 14c0 2-1 4 -3 5c-3 4-10 8 -18 10c-2 1-2 1 -7 1a342 342 90 00-35 3c-5 1-15 1 -18 0z" />
  <path fill="#fff" d="m-67 66c7-75 115 -63 115 -63l-12 16s18 44 37 47c11 2-29 -4 -69 -4c-33 0-66 5 -70 5z" />
  <path d="m-13 16a6 4 0 01-2 6a6 4 0 01-9-2a6 4 0 012-6a6 4 0 019 2m9 10a6 4 0 01-2 6a6 4 0 01-9-2a6 4 0 012-6a6 4 0 019 1m-33 8a6 4 0 01-2 6a6 4 0 01-9-2a6 4 0 012-6a6 4 0 019 2m11-9a6 4 0 01-2 6a6 4 0 01-9-2a6 4 0 012-6a6 4 0 019 1m7 10a6 4 0 01-2 6a6 4 0 01-9-2a6 4 0 012-6a6 4 0 019 2m-9 10a6 4 0 01-2 6a6 4 0 01-9-2a6 4 0 012-6a6 4 0 019 2m-17 0a6 4 0 01-2 6a6 4 0 01-9-2a6 4 0 012-6a6 4 0 019 2m11 11a6 4 0 01-3 6a6 4 0 01-9-2a6 4 0 012-6a6 4 0 019 2m-15-1a6 4 0 01-3 6a6 4 0 01-9-2a6 4 0 012-6a6 4 0 019 2m75-17a6 4 0 01-2 6a6 4 0 01-9-2a6 4 0 012-6a6 4 0 019 1m6 9a6 4 0 01-2 6a6 4 0 01-9-2a6 4 0 012-6a6 4 0 019 2m8 10a6 4 0 01-3 6a6 4 0 01-9-2a6 4 0 012-6a6 4 0 019 2m3-19a6 4 0 01-2 6a6 4 0 01-9-2a6 4 0 012-6a6 4 0 019 2m6 10a6 4 0 01-2 6a6 4 0 01-9-2a6 4 0 012-6a6 4 0 019 2m7 9a6 4 0 01-2 6a6 4 0 01-9-2a6 4 0 012-6a6 4 0 019 2m-18-29a6 4 0 01-2 6a6 4 0 01-9-2a6 4 0 012-6a6 4 0 019 2m-15-1a6 4 0 01-2 6a6 4 0 01-9-2a6 4 0 012-6a6 4 0 019 2m9-10a6 4 0 01-2 6a6 4 0 01-9-2a6 4 0 012-6a6 4 0 019 2m-8-10a6 4 0 01-2 6a6 4 0 01-9-2a6 4 0 012-6a6 4 0 019 2m16 1a6 4 0 01-2 6a6 4 0 01-9-2a6 4 0 012-6a6 4 0 019 2" />
  <path stroke="#eee" stroke-width="3" d="m42 62c-13 1-26 1 -39 -2c-8-1 -22 5 -38 5c-10 1-10 -3 -7 -9c6-9 29 -21 46 -31c-7 0-21 -5 -23 -12c-1-5 0 -11 6 -12c6-2 7 -2 15 1c3 0 6 3 8 5c4 4 8 7 9 14c0 3-1 6 -2 10c-4 4-14 10 -19 13c5-2 15 -7 19 -9c7 11 16 20 24 29z" />
  <path fill="none" stroke="#2c292c" stroke-linecap="round" stroke-width="4" d="m0 -62a6 6 90 012 6a6 6 90 01-5 4a6 6 90 01-6-3a6 6 90 011-6m29 1a6 6 90 011 6a6 6 90 01-6 3a6 6 90 01-5-4a6 6 90 012-6m-4 17a6 6 90 011 6a6 6 90 01-5 3a6 6 90 01-5-4a6 6 90 012-6m-15-1a6 6 90 014 5a6 6 90 01-4 5a6 6 90 01-6-2a6 6 90 01-1-6m52 0a6 6 90 01-1 6a6 6 90 01-6 2a6 6 90 01-4-5a6 6 90 013-6m-27 16a6 6 90 013 5a6 6 90 01-4 5a6 6 90 01-6-2a6 6 90 01-1-6m30-1a6 6 90 01-1 6a6 6 90 01-6 2a6 6 90 01-4-5a6 6 90 013-6m-3 19a6 6 90 011 6a6 6 90 01-5 4a6 6 90 01-5-4a6 6 90 012-6m38-14a6 6 90 01-3 6a6 6 90 01-6 0a6 6 90 01-2-6a6 6 90 015-4m-5 22a6 6 90 01-3 6a6 6 90 01-6-1a6 6 90 01-2-6a6 6 90 015-4m-49-17a6 6 90 015 4a6 6 90 01-1 6a6 6 90 01-6 1a6 6 90 01-4-5m17 12a6 6 90 015 3a6 6 90 01-1 6a6 6 90 01-6 1a6 6 90 01-4-5" />
  <path fill="#eee" d="m-11 0l-27-10l12 10l-15-3l20 12zm6 6c-1 1-1 2 -1 3c1 1 2 2 4 1c1-1 1 -2 1 -3c-1-2 -1 -2 -2 -3c-1 0-2 1 -2 2z" />
  <path stroke="#2c292c" d="m-26-16c-5 1-14 -4 -14 -4c0 0 11 5 10 6c-4 1-9 1 -14 2l17 1l-17 4c6 0 13-2 18 -1c-1-3 0 -6 1 -8zm26-54c-2-2 -2 -4 0 -6l-5 4l3-6l-4 5l1-7l-3 6l-2-6l-1 6l-2-6c1 6 0 8-2 11c5-2 9 -4 14 -1zm30 3c-1-2 -2 -3 -4 -4l3-6l-5 4l2-7l-4 6l-1-7l-2 6l-3-5c0 2 0 5-4 6c5 1 14 4 17 6zm-2 14c2-4 2 -6 2 -8l1 8l4-5l-2 6l6-3l-4 4l8 1l-6 1l6 3c-3-1 -6 -2 -9 2c1-7 -3 -8 -7 -9zm18 10l-14 5c3 2 5 2 6 5l9-3l-9 1l8-4l-8 1zm-3 22c3 1 4 2 10 2l-13 2zm-9 11c5 0 11-2 16 -2c-5 3-9 3 -14 4l12 4c-5 0-9 -2 -13 0c3 2 6 3 11 4l-18-1c4-1 8 -7 7 -9zm-61-33c0-5 0 -5 3 -7c-5-1 -6 -3 -9 -5l5 6l-12-4l9 5h-12l10 2c-1 2-4 2 -8 4c4-1 10 -3 13 -1zm6-22c1 4 1 8 4 11c-2-1 -2 0 -5 1c2-4 0 -8 1 -12zm-9 29c-7-3 -8 -2 -8 -2l8 3z" />
</svg>
