<svg xmlns="http://www.w3.org/2000/svg" xmlns:xlink="http://www.w3.org/1999/xlink" width="180" height="250" viewBox="-90 -125 180 250">
  <defs>
    <symbol id="sou" overflow="visible">
      <g fill="var(--color,#87bd52)" stroke-linecap="round">
        <ellipse cx="-7" cy="-35" rx="12" ry="10"/>
        <ellipse cx="7" cy="-35" rx="12" ry="10"/>
        <ellipse cx="-6" rx="16" ry="12"/>
        <ellipse cx="6" rx="16" ry="12"/>
        <ellipse cx="-8" cy="38" rx="12" ry="10"/>
        <ellipse cx="8" cy="38" rx="12" ry="10"/>
        <path stroke="var(--color,#87bd52)" stroke-width="20" d="m0 35v-70"/>
        <path stroke="#2c292c" stroke-width="5" d="m0 15v23m0-70v19m-5 11c2-3 8 -3 10 0m-10 9c2-3 8 -3 10 0" />
        <circle cy="-34" r="5" fill="#2c292c"/>
      </g>
    </symbol>
    <symbol id="xsou" overflow="visible">
      <use xlink:href="#sou" transform="scale(0.75)" />
    </symbol>
  </defs>
  <rect x="-90" y="-125" width="180" height="250" ry="20" fill="#2c292c" />
  <use xlink:href="#xsou" y="-80" style="--color:#f08060" />
  <use xlink:href="#xsou" x="-55" />
  <use xlink:href="#xsou" />
  <use xlink:href="#xsou" x="55" />
  <use xlink:href="#xsou" x="-55" y="80" />
  <use xlink:href="#xsou" y="80" />
  <use xlink:href="#xsou" x="55" y="80" />
</svg>
