<svg xmlns="http://www.w3.org/2000/svg" width="180" height="250" viewBox="-90 -125 180 250">
  <rect x="-90" y="-125" width="180" height="250" ry="20" fill="#2c292c" />
  <path fill="#3bb6e3" d="m-9-96c-8-4 -9 3 -8 7c3 10 7 14 11 21c1 2 2 4 2 5l-1 102c0 3-1 13 -3 12c-7-6 -10 -10 -21 -25c-5-8 -9 -4 -3 6c19 27 21 29 21 56c1 15 15 12 16 3c2-10 -1 -25 -1 -36c0-41 0 -77 6 -117c1-7 11 -12 16 -13c2-1 5 -7 0 -7c-11-2 -24 -8 -34 -13z" />
  <path fill="#3bb6e3" d="m42-47c-25 6-77 18 -79 15c-7-6 -15 -2 -10 5c7 14 19 26 24 41c1 2 2 3 3 3c16 0 27-4 42 -5c3 0 6 3 8 2c2-1 2 -4 3 -6c3-13 13 -23 18 -36c1-2 5 -2 5 -3c-1-6 -8 -15 -12 -15zm-11 17c6 0 0 13-3 13c-3 0-3 -4 -6 -4c-3 1-2 2 -5 3c-15 3-26 4 -41 6c-2 0-7 -9 -4 -10c19-5 50 -9 58 -9zm-8 25c2 4-1 7 -4 7c-14 2-35 6 -37 4c-1-2 -4 -6 -3 -8c5-2 42 -7 44 -3zm-46-45c-13-1 -4 8 -1 8c16-2 42 -6 59 -10c1 0 0-9 -8 -10c-2 0-2 2 -5 3c-13 3-35 10 -46 9zm0 67c-5 6-13 13 -40 26c-11 5-10 12 3 7c35-15 42 -24 47 -33zm31-3c7 5 23 43 31 38c7-5 16 -6 19 -5c5 2 5 4 8 6c7 4 6-1 3 -5c-7-11 -37 -17 -47 -36z" />
</svg>
